<svg xmlns="http://www.w3.org/2000/svg" viewBox="0 0 588.07 378.93"><defs><style>.cls-1{fill:#1b513b;}.cls-2,.cls-4{fill:#6e8c65;}.cls-3{fill:#c2d1be;}.cls-4{font-size:48.22px;font-family:Ubuntu-Light, Ubuntu;font-weight:300;}.cls-5{letter-spacing:-0.01em;}</style></defs><g id="Layer_2" data-name="Layer 2"><g id="Layer_1-2" data-name="Layer 1"><path class="cls-1" d="M267.91,39.21l-27.33-4.52V70.38l-37.48-.24v7.17A15.65,15.65,0,0,0,218.75,93l21.83.24v36.09q0,14.24-4.52,20.33t-15.36,6.1A62.33,62.33,0,0,1,208,154.23c-3.53-.69-6.25-1.44-9.36-2.33l-2,7.48c-1.66,7.94,2.89,14.89,10.61,17.37a69.15,69.15,0,0,0,19.83,3.41c9.91,0,16.21-1.81,21.85-4.8,5.37-2.85,7.55-5.43,10.86-9.72s4.74-9.13,6.09-15.23a96.52,96.52,0,0,0,2-20.89Z"/><path class="cls-2" d="M354.47,12.3a15.4,15.4,0,0,1-17.34,12.12A89.54,89.54,0,0,0,327,23.51a43.25,43.25,0,0,0-8.45.89A57.63,57.63,0,0,0,311.44,26V104.8H299.52a15.41,15.41,0,0,1-15.41-15.41V8.13A151.37,151.37,0,0,1,303.87,2.6,123.38,123.38,0,0,1,330.19,0q2.7,0,6.32.34c2.41.22,4.82.53,7.23.9s4.74.83,7,1.36,4.07,1,5.42,1.47Z"/><path class="cls-3" d="M387.58,81.51a50.53,50.53,0,0,0-12-18.24A52.54,52.54,0,0,0,356.74,51.7c-7.37-2.69-11.23-4-20.57-4a53.4,53.4,0,0,0-5.46.13l-.46,9.34c0,6.62,4.76,12.31,11.54,14.09a26.24,26.24,0,0,1,13.71,8.07q8.24,9.55,8.25,26.74c0,10.75-3,18.85-7.59,25.22s-11.26,8.81-21.2,8.81a43.26,43.26,0,0,1-13.36-1.9c-4-1.34-8.9-5-8.9-5,0-7.94-5.68-14.28-15.29-14.37H285.36l1.3,81.52c0,8,6.95,14.59,15.53,14.59H314l-1.3-57.68a59.46,59.46,0,0,0,11.52,4.25,58.36,58.36,0,0,0,15.36,1.91,55.63,55.63,0,0,0,22.25-4.25,44.32,44.32,0,0,0,16.37-11.88A53.38,53.38,0,0,0,388.26,129a74.51,74.51,0,0,0,3.5-23.34A66,66,0,0,0,387.58,81.51Z"/><path class="cls-1" d="M0,228.46l23.85-3.84v24.81l23.06-.07V254a15.23,15.23,0,0,1-15.22,15.23l-7.84.07v29.61q0,7.51,2.64,12t10.64,4.48a45.55,45.55,0,0,0,7.92-.72c2.72-.48,5.07-.69,8.34-1.36a37.7,37.7,0,0,1,0,5c-.62,6.1-2.51,12.83-7.19,15-3.54,1.61-9.27,2.27-12.89,2.27q-9.76,0-16.16-2.64a25.35,25.35,0,0,1-10.25-7.37,27.32,27.32,0,0,1-5.36-11.44A67.74,67.74,0,0,1,0,299.21Z"/><path class="cls-1" d="M67,320.87V215.18l23.85-3.84v40.33a49.86,49.86,0,0,1,6.16-1.52,38.77,38.77,0,0,1,7.28-.72q10.24,0,17,2.8a26.54,26.54,0,0,1,10.88,7.92A30.81,30.81,0,0,1,138,272.32,67.62,67.62,0,0,1,139.71,288v47.54h-9.05a14.8,14.8,0,0,1-14.8-14.8V290.88q0-11.52-3-16.32t-11-4.8a30.12,30.12,0,0,0-6,.56q-2.81.56-5,1.2v64H81.71A14.67,14.67,0,0,1,67,320.87Z"/><path class="cls-1" d="M152.49,292.16a51.56,51.56,0,0,1,3.44-19.6,42.05,42.05,0,0,1,9-14,37.56,37.56,0,0,1,12.88-8.48,42.63,42.63,0,0,1,16.74-2.74c12.05.8,16.39,3.34,23.32,10.64s10.41,18.07,10.41,32.25c0,1.39-.06,2.91-.16,4.57s.11,3.16,0,4.44l-51.19.14a15.82,15.82,0,0,0,6.88,11.68c4,2.88,8,4.48,14.84,5.2,5.75.62,9.47,0,13.85-.42,14.24-1.37,15.32,13.92,15.32,13.92-2.15,2.07-6.26,3.49-10.05,4.3-2.6.55-6.32,1-9.31,1.33s-8.54.48-11.52.48a53.07,53.07,0,0,1-19.77-3.36,38.55,38.55,0,0,1-13.93-9.21,36.44,36.44,0,0,1-8.16-13.84A54.9,54.9,0,0,1,152.49,292.16Zm56-9.12a25.08,25.08,0,0,0-1-5.92,14.92,14.92,0,0,0-2.72-5.12,14.5,14.5,0,0,0-4.64-3.68,15,15,0,0,0-7-1.45,16,16,0,0,0-6.88,1.37,14,14,0,0,0-4.8,3.6,15.94,15.94,0,0,0-3,5.2,33.41,33.41,0,0,0-1.52,6Z"/><path class="cls-1" d="M298.35,257.21a16,16,0,0,1-16,12.84c-4.67-.09-5.72-.39-9.24.11a34.68,34.68,0,0,0-4.72.88v64.34h-9.15a14.7,14.7,0,0,1-14.7-14.7v-65a145.66,145.66,0,0,1,15.13-4.24,58.72,58.72,0,0,1,13.31-2c1.28-.06,9,.08,10.77.24s3.63.37,5.45.64,3.62.59,5.44,1a25.59,25.59,0,0,1,4.61,1.35s0,0,0,0Z"/><path class="cls-1" d="M512.26,227.82q0,6.57-4.24,10.33a15.19,15.19,0,0,1-20,0q-4.23-3.77-4.24-10.33T488,217.5a15.19,15.19,0,0,1,20,0Q512.27,221.27,512.26,227.82Zm-2.32,108h-8.85a15,15,0,0,1-15-15V251.65h8.73a15.12,15.12,0,0,1,15.12,15.13Z"/><path class="cls-1" d="M552.38,316.49c4.37,0,7.47-.42,9.28-1.28s2.72-2.51,2.72-5q0-2.88-3.52-5a66.74,66.74,0,0,0-10.72-4.88A108.37,108.37,0,0,1,540,296a29.73,29.73,0,0,1-7.76-5.36,21.68,21.68,0,0,1-5-7.44,27.43,27.43,0,0,1-1.76-10.4q0-11.85,8.8-18.73t24.17-6.88a77.18,77.18,0,0,1,14.72,1.36,67.88,67.88,0,0,1,10.71,2.54.05.05,0,0,1,0,0l-.58,4.6a14.75,14.75,0,0,1-16.85,11.38,46.3,46.3,0,0,0-6.27-.73q-11.21,0-11.2,6.25a6.46,6.46,0,0,0,.48,2.56,5.42,5.42,0,0,0,1.92,2.16,27.57,27.57,0,0,0,3.92,2.25c1.65.81,3.76,1.69,6.32,2.66a98.4,98.4,0,0,1,13,5.73,31.08,31.08,0,0,1,8.08,6.1,18.84,18.84,0,0,1,4.16,7.26,32.26,32.26,0,0,1,1.2,9.26q0,12.47-9.36,18.85t-26.49,6.39a76.17,76.17,0,0,1-18.65-1.92,59.69,59.69,0,0,1-9.74-3.18c-.05,0,.29-4.24.29-4.24a14.94,14.94,0,0,1,17.51-11.62A76.31,76.31,0,0,0,552.38,316.49Z"/><path class="cls-1" d="M385.15,321.47A14.75,14.75,0,0,1,365.47,333l-.92-.37c-2.58-1.12-3-1.53-5.25-3.75a.45.45,0,0,0-.6-.05,48.22,48.22,0,0,1-8.92,4.88,35.33,35.33,0,0,1-14.35,2.64q-17.37,0-26.76-11.25t-9.39-31.27a49.88,49.88,0,0,1,2.87-17.3,38.27,38.27,0,0,1,8.3-13.5,37.17,37.17,0,0,1,13.19-8.76,46.85,46.85,0,0,1,17.53-3.11,113,113,0,0,1,17.46,1.4,125.63,125.63,0,0,1,14.95,3.16.46.46,0,0,1,.33.45v47.75a26,26,0,0,0,.62,6.28,8.6,8.6,0,0,0,2,3.88,7.73,7.73,0,0,0,3.72,2.1,34,34,0,0,0,5.53.92.06.06,0,0,1,.05.06Zm-46.46-4.53a23.07,23.07,0,0,0,7.29-1.08,26.11,26.11,0,0,0,5.64-2.63.46.46,0,0,0,.21-.47,66.11,66.11,0,0,1-.88-11.18V272a.46.46,0,0,0-.4-.46c-1.21-.19-2.43-.35-3.64-.49a53,53,0,0,0-5.58-.23q-8.85,0-13.73,6.44t-4.89,17.14q0,11.18,4.27,16.84A13.83,13.83,0,0,0,338.69,316.94Z"/><path class="cls-1" d="M469.48,274.18a37.69,37.69,0,0,0-8.57-13.84,38.09,38.09,0,0,0-13.76-8.81,51.72,51.72,0,0,0-18.57-3.12c-1.48,0-3,0-4.56.11a.06.06,0,0,0-.06.06v6.09c0,6.51,4.11,12.63,10.42,14.27a18.2,18.2,0,0,1,10.15,6.36c4,4.78,5.93,9.23,5.32,17.1-1.22,16-6.17,23.35-17.34,23.41a38.67,38.67,0,0,1-8.65-.82,20.67,20.67,0,0,1-5.84-2.4V312a14.8,14.8,0,0,0-14.8-14.8h-9.05v66.9a14.8,14.8,0,0,0,14.8,14.8h9V332.44a45,45,0,0,0,8.32,2.72,42.8,42.8,0,0,0,9.29,1,37.24,37.24,0,0,0,15.84-3.2A31.69,31.69,0,0,0,463,324,39.85,39.85,0,0,0,470,310.19a61.63,61.63,0,0,0,2.4-17.76A53.29,53.29,0,0,0,469.48,274.18Z"/><text class="cls-4" transform="translate(42.61 132.17)">p<tspan class="cls-5" x="28.11" y="0">h</tspan><tspan x="55.12" y="0">ysio</tspan></text><text class="cls-4" transform="translate(407.75 132.17)">center</text></g></g></svg>