<svg xmlns="http://www.w3.org/2000/svg" viewBox="0 0 714.96 145.82"><defs><style>.cls-1{fill:#1b513b;}.cls-2,.cls-4{fill:#6e8c65;}.cls-3{fill:#c2d1be;}.cls-4{font-size:34.06px;font-family:Ubuntu-Light, Ubuntu;font-weight:300;}.cls-5{letter-spacing:-0.01em;}</style></defs><g id="Layer_2" data-name="Layer 2"><g id="Layer_1-2" data-name="Layer 1"><path class="cls-1" d="M46.78,25.62l-17.85-3V46L4.44,45.82V50.5A10.23,10.23,0,0,0,14.67,60.73l14.26.15V84.46q0,9.3-2.95,13.28t-10,4a40.59,40.59,0,0,1-8.32-1c-2.3-.45-4.08-.94-6.11-1.52L.22,104.11c-1.08,5.19,1.89,9.74,6.94,11.35a44.82,44.82,0,0,0,13,2.23c6.47,0,10.59-1.18,14.27-3.13,3.51-1.86,4.93-3.55,7.09-6.36s3.1-6,4-9.94a63.71,63.71,0,0,0,1.32-13.65Z"/><path class="cls-2" d="M103.33,8A10.06,10.06,0,0,1,92,16a57.58,57.58,0,0,0-6.62-.59,27.66,27.66,0,0,0-5.52.58,36,36,0,0,0-4.64,1V68.46H67.43A10.07,10.07,0,0,1,57.36,58.39V5.31A97.89,97.89,0,0,1,70.27,1.7,80.63,80.63,0,0,1,87.46,0C88.64,0,90,.07,91.6.22s3.14.35,4.72.59,3.1.54,4.57.89,2.66.66,3.54,1Z"/><path class="cls-3" d="M125,53.25a33,33,0,0,0-7.83-11.92,34.45,34.45,0,0,0-12.32-7.56C100,32,97.47,31.14,91.37,31.14c-.31,0-2.47-.05-3.56.08l-.31,6.1a9.71,9.71,0,0,0,7.55,9.2,17.21,17.21,0,0,1,9,5.27q5.39,6.26,5.39,17.48c0,7-2,12.31-5,16.47s-7.36,5.75-13.85,5.75a28.25,28.25,0,0,1-8.72-1.23A26.08,26.08,0,0,1,76,87c0-5.18-3.71-9.33-10-9.38H58.18L59,130.83c0,5.26,4.54,9.53,10.14,9.53h7.72L76,102.68a38.37,38.37,0,0,0,7.52,2.77,37.76,37.76,0,0,0,10,1.25,36.27,36.27,0,0,0,14.53-2.77,29.15,29.15,0,0,0,10.7-7.76,35.07,35.07,0,0,0,6.57-11.93A48.55,48.55,0,0,0,127.68,69,43.27,43.27,0,0,0,125,53.25Z"/><path class="cls-1" d="M151.7,30.68,170,27.74v19l17.65,0v3.54a11.66,11.66,0,0,1-11.66,11.65l-6,0V84.57q0,5.76,2,9.19c1.34,2.28,4.06,3.42,8.14,3.42a34.56,34.56,0,0,0,6.06-.55c2.09-.36,3.88-.52,6.38-1a28.69,28.69,0,0,1,0,3.85c-.47,4.66-1.93,9.81-5.5,11.44-2.71,1.24-7.1,1.74-9.87,1.74a32.82,32.82,0,0,1-12.37-2A19.48,19.48,0,0,1,157,105a21.05,21.05,0,0,1-4.1-8.75,51.5,51.5,0,0,1-1.16-11.4Z"/><path class="cls-1" d="M203,101.39V20.51l18.25-2.94V48.44A37.67,37.67,0,0,1,226,47.27a30.11,30.11,0,0,1,5.57-.55,34.41,34.41,0,0,1,13,2.15,20.28,20.28,0,0,1,8.33,6.06,23.51,23.51,0,0,1,4.41,9.31,51.58,51.58,0,0,1,1.29,12v36.38h-6.93a11.32,11.32,0,0,1-11.32-11.33V78.45q0-8.82-2.27-12.5t-8.39-3.67a23.09,23.09,0,0,0-4.59.43c-1.43.28-2.72.59-3.86.92v49h-7A11.23,11.23,0,0,1,203,101.39Z"/><path class="cls-1" d="M268.39,79.43a39.54,39.54,0,0,1,2.63-15,32.31,32.31,0,0,1,6.92-10.72,29,29,0,0,1,9.86-6.49,32.69,32.69,0,0,1,12.82-2.1c9.21.62,12.53,2.56,17.84,8.15s8,13.82,8,24.68c0,1.06,0,2.23-.12,3.49s.08,2.42,0,3.4l-39.17.11a12.13,12.13,0,0,0,5.27,8.94c3.1,2.2,6.15,3.42,11.35,4a45,45,0,0,0,10.6-.33c10.9-1,11.72,10.66,11.72,10.66-1.64,1.59-4.79,2.67-7.69,3.29-2,.42-4.84.77-7.12,1s-6.54.37-8.82.37a40.52,40.52,0,0,1-15.13-2.57,29.37,29.37,0,0,1-10.65-7,27.92,27.92,0,0,1-6.25-10.6A41.86,41.86,0,0,1,268.39,79.43Zm42.87-7a18.72,18.72,0,0,0-.8-4.53A11.37,11.37,0,0,0,308.38,64a11,11,0,0,0-3.55-2.81,11.52,11.52,0,0,0-5.33-1.11,12.32,12.32,0,0,0-5.27,1,11,11,0,0,0-3.67,2.76,12.4,12.4,0,0,0-2.27,4,25.73,25.73,0,0,0-1.16,4.59Z"/><path class="cls-1" d="M380,52.68a12.27,12.27,0,0,1-12.25,9.82c-3.57-.07-4.37-.3-7.07.08a27.11,27.11,0,0,0-3.61.68v49.23h-7a11.25,11.25,0,0,1-11.25-11.24V51.5a112.34,112.34,0,0,1,11.58-3.25,44.84,44.84,0,0,1,10.18-1.53c1,0,6.86.06,8.25.19s2.77.28,4.16.49,2.78.45,4.17.73a20.92,20.92,0,0,1,3.53,1s0,0,0,0Z"/><path class="cls-1" d="M543.7,30.19a10,10,0,0,1-3.24,7.9,11.61,11.61,0,0,1-15.31,0,10,10,0,0,1-3.25-7.9,10,10,0,0,1,3.25-7.9,11.61,11.61,0,0,1,15.31,0A10,10,0,0,1,543.7,30.19Zm-1.77,82.66h-6.77a11.48,11.48,0,0,1-11.48-11.48V48.42h6.67A11.58,11.58,0,0,1,541.93,60Z"/><path class="cls-1" d="M574.4,98c3.35,0,5.72-.32,7.11-1a3.79,3.79,0,0,0,2.08-3.79q0-2.2-2.7-3.86a51.33,51.33,0,0,0-8.2-3.74q-4.29-1.59-7.78-3.3A23,23,0,0,1,559,78.26a16.67,16.67,0,0,1-3.8-5.69,21.08,21.08,0,0,1-1.34-8q0-9.07,6.73-14.33T579.06,45a59.53,59.53,0,0,1,11.26,1,51.39,51.39,0,0,1,8.2,2s0,0,0,0l-.45,3.52a11.29,11.29,0,0,1-12.89,8.71,35,35,0,0,0-4.8-.55q-8.56,0-8.57,4.77a4.83,4.83,0,0,0,.37,2,4.12,4.12,0,0,0,1.47,1.66,20.7,20.7,0,0,0,3,1.72c1.26.62,2.88,1.3,4.84,2a76,76,0,0,1,9.92,4.39,23.87,23.87,0,0,1,6.18,4.66,14.61,14.61,0,0,1,3.19,5.57,24.71,24.71,0,0,1,.92,7.08q0,9.54-7.17,14.42t-20.27,4.89A58.25,58.25,0,0,1,560,111.39a44.94,44.94,0,0,1-7.46-2.43s.23-3.24.23-3.24a11.42,11.42,0,0,1,13.4-8.89A59.2,59.2,0,0,0,574.4,98Z"/><path class="cls-1" d="M446.43,101.85a11.29,11.29,0,0,1-15.06,8.82c-.25-.1-.49-.19-.7-.29a9.64,9.64,0,0,1-4-2.87.36.36,0,0,0-.46,0,37,37,0,0,1-6.82,3.74,27,27,0,0,1-11,2q-13.29,0-20.48-8.61T380.72,80.7a38.11,38.11,0,0,1,2.2-13.24,29.19,29.19,0,0,1,6.35-10.33,28.29,28.29,0,0,1,10.09-6.71A35.94,35.94,0,0,1,412.78,48a86.77,86.77,0,0,1,13.36,1.07,96.57,96.57,0,0,1,11.44,2.42.35.35,0,0,1,.25.34V88.41a19.6,19.6,0,0,0,.48,4.81,6.57,6.57,0,0,0,1.54,3,5.86,5.86,0,0,0,2.85,1.6,26.11,26.11,0,0,0,4.23.71s0,0,0,0Zm-35.55-3.46a17.68,17.68,0,0,0,5.58-.83,20.09,20.09,0,0,0,4.31-2,.37.37,0,0,0,.16-.36,50.82,50.82,0,0,1-.67-8.56V64a.36.36,0,0,0-.3-.35c-.93-.14-1.86-.26-2.79-.37a39,39,0,0,0-4.27-.18,12.43,12.43,0,0,0-10.51,4.93q-3.74,4.94-3.74,13.12,0,8.55,3.26,12.88A10.63,10.63,0,0,0,410.88,98.39Z"/><path class="cls-1" d="M511,65.66a28.87,28.87,0,0,0-6.55-10.59,29.34,29.34,0,0,0-10.53-6.74A39.65,39.65,0,0,0,479.67,46c-1.14,0-2.3,0-3.5.08a0,0,0,0,0,0,0v4.65c0,5,3.15,9.67,8,10.92a13.92,13.92,0,0,1,7.78,4.87c3.07,3.66,4.53,7.07,4.07,13.08-.94,12.24-4.73,17.88-13.28,17.92a29.33,29.33,0,0,1-6.61-.62,16.13,16.13,0,0,1-4.48-1.84v-.43A11.32,11.32,0,0,0,460.26,83.3h-6.92v51.2a11.32,11.32,0,0,0,11.32,11.32h6.92V110.25a34.39,34.39,0,0,0,6.37,2.08,32.81,32.81,0,0,0,7.11.73,28.33,28.33,0,0,0,12.12-2.45,24.41,24.41,0,0,0,8.82-6.85,30.45,30.45,0,0,0,5.39-10.54,47,47,0,0,0,1.84-13.59A40.78,40.78,0,0,0,511,65.66Z"/><text class="cls-4" transform="translate(616.65 71.55)">p<tspan class="cls-5" x="19.86" y="0">h</tspan><tspan x="38.94" y="0">ysio</tspan><tspan x="0" y="40.88">center</tspan></text></g></g></svg>