<svg xmlns="http://www.w3.org/2000/svg" viewBox="0 0 303.11 261.24"><defs><style>.cls-1{fill:#aa6d5f;}</style></defs><g id="Layer_2" data-name="Layer 2"><g id="Layer_1-2" data-name="Layer 1"><circle class="cls-1" cx="149.39" cy="25.67" r="25.66"/><circle class="cls-1" cx="41.74" cy="179.73" r="25.66"/><path class="cls-1" d="M72.64,155.15l-.36,21.35c-.25,15,13.55,27.36,30.83,27.65l166.05,2.77.35-21.08c.25-15.13-13.69-27.63-31.14-27.93Z"/><path class="cls-1" d="M144.76,149.39l51.75,1.14L183,52.86l-22,3.06c-15.8,2.19-26.66,18-24.26,35.27Z"/><path class="cls-1" d="M207.37,216.51H152.81l6,44.73a115.82,115.82,0,0,0,23.64-2.93c16.27-3.81,28.17-17.47,25.93-34Z"/><path class="cls-1" d="M146.54,72.7l6.87,4.47c4.82,3.14,5.81,10.15,2.22,15.66l-34.48,52.94-6.77-4.41c-4.87-3.17-5.88-10.25-2.25-15.81Z"/><path class="cls-1" d="M5,210.39H286.21c3.8,0,7.6.06,11.4,0h.5a5,5,0,0,0,0-10H16.9c-3.8,0-7.6,0-11.4,0H5a5,5,0,0,0,0,10Z"/></g></g></svg>