<svg xmlns="http://www.w3.org/2000/svg" viewBox="0 0 303.11 257.3"><defs><style>.cls-1{fill:#aa6d5f;}</style></defs><g id="Layer_2" data-name="Layer 2"><g id="Layer_1-2" data-name="Layer 1"><circle class="cls-1" cx="39.39" cy="179.07" r="23.92"/><circle class="cls-1" cx="170.89" cy="25.67" r="25.66"/><path class="cls-1" d="M170.9,206H72.22V184.68c0-15,14-27.13,31.28-27.13h67.39l42.37-24.78,36.42-5.66c18.71,0,14.91,23.55,14.91,23.55l-36.71,5-56.94,25.18s0,0,0,0l97.45-2.66v.48c0,15.13-14.15,27.4-31.6,27.4H169.71"/><path class="cls-1" d="M175.61,74l-5.92,5.66c-4.16,4-3.84,11,.7,15.8l43.67,45.66,5.84-5.59c4.2-4,3.88-11.15-.71-15.95Z"/><path class="cls-1" d="M5,211.15H286.21c3.8,0,7.6,0,11.4,0,.17,0,.33,0,.5,0a5,5,0,0,0,0-10H16.9c-3.8,0-7.6-.06-11.4,0H5a5,5,0,0,0,0,10Z"/><path class="cls-1" d="M198.48,217.43V257.3h-24a31.18,31.18,0,0,1-31.18-31.18v-8.69Z"/><path class="cls-1" d="M185.77,148.84H143.31V60h24.3a30.87,30.87,0,0,1,30.87,30.87v50.55"/></g></g></svg>