<svg xmlns="http://www.w3.org/2000/svg" viewBox="0 0 178.71 280.68"><defs><style>.cls-1{fill:none;stroke:#f2e4e2;stroke-miterlimit:10;stroke-width:4px;}.cls-2{fill:#f2e4e2;}</style></defs><g id="Layer_2" data-name="Layer 2"><g id="Layer_1-2" data-name="Layer 1"><circle class="cls-1" cx="74.95" cy="51.26" r="24.49"/><path class="cls-1" d="M67.28,190.48,46.11,265c-3,10.56-14.79,15.42-26.83,13-6.51-1.29-16.84-4.78-16.84-4.78L31.22,172c3-10.68,15.16-16.58,27.1-13.19l5.09,1.44"/><path class="cls-1" d="M88.81,80.36c7.06-.14,18.89.58,18.89.58l-1.58,109.54H63.4l0-84C63.89,91.64,75.25,80.63,88.81,80.36Z"/><circle class="cls-1" cx="144.99" cy="27.67" r="25.66"/><path class="cls-1" d="M176.71,63.05H155.36c-15,0-27.13,14-27.13,31.28V278.68h21.08c15.14,0,27.4-14.14,27.4-31.6Z"/><path class="cls-1" d="M100.5,75.72l1.84-8c1.29-5.6,7.53-8.94,13.93-7.47l46.17,11.2-1.82,7.88c-1.3,5.66-7.61,9-14.08,7.54Z"/><path class="cls-2" d="M61.18,198.85H106a5,5,0,1,0,0-10H61.18a5,5,0,0,0,0,10Z"/></g></g></svg>