<svg xmlns="http://www.w3.org/2000/svg" viewBox="0 0 182.28 276.68"><defs><style>.cls-1{fill:#c2d1be;}</style></defs><g id="Layer_2" data-name="Layer 2"><g id="Layer_1-2" data-name="Layer 1"><circle class="cls-1" cx="72.5" cy="49.26" r="24.49"/><path class="cls-1" d="M64.84,188.48,43.67,263c-3,10.56-14.79,15.42-26.83,13C10.33,274.8,0,271.31,0,271.31L28.78,170c3-10.68,15.16-16.58,27.1-13.19L61,158.21"/><path class="cls-1" d="M86.37,78.36c7.06-.14,18.88.58,18.88.58l-1.58,109.54H61l0-84C61.45,89.64,72.8,78.63,86.37,78.36Z"/><circle class="cls-1" cx="150.56" cy="25.67" r="25.66"/><path class="cls-1" d="M182.28,61.05H160.93c-15,0-27.13,14-27.13,31.28V276.68h21.08c15.13,0,27.4-14.14,27.4-31.6Z"/><path class="cls-1" d="M159,69.12l-2,8c-1.37,5.58-7.66,8.84-14,7.27L97,72.51l1.93-7.85c1.39-5.64,7.73-8.93,14.18-7.35Z"/><path class="cls-1" d="M58.73,196.85h44.78a5,5,0,1,0,0-10H58.73a5,5,0,1,0,0,10Z"/></g></g></svg>