<svg xmlns="http://www.w3.org/2000/svg" viewBox="0 0 166 256.4"><defs><style>.cls-1{fill:#1b513b;}</style></defs><g id="Layer_2" data-name="Layer 2"><g id="Layer_1-2" data-name="Layer 1"><circle class="cls-1" cx="71.08" cy="25.66" r="25.66"/><circle class="cls-1" cx="141.87" cy="232.27" r="24.13"/><path class="cls-1" d="M75.4,250.08c10-13.4,16.44-29.09,21.21-45,5-16.59,8.1-33.64,12.15-50.46a264.67,264.67,0,0,1,7.3-25.49q1.08-3.1,2.28-6.17c.17-.44.35-.88.53-1.33.28-.7.06.16-.08.18a2.59,2.59,0,0,0,.22-.5c.38-.85.78-1.69,1.21-2.5s.78-1.4,1.22-2.06a7.08,7.08,0,0,0,.73-1c0,.07-.77.91-.11.17.15-.17.31-.36.47-.53s.57-.6.87-.87l.4-.35c.55-.49,0,.19-.18.13.12,0,.76-.49.89-.57s.41-.22.62-.33c.69-.38-.09.15-.21.07a8.71,8.71,0,0,0,1.19-.37l.51-.11c.92-.21-.2.09-.29,0a5,5,0,0,0,1.21,0l.52,0c.94,0-.73-.17-.12,0s1.47.35,2.2.59-.06.19-.2-.09c0,.07.41.19.48.23.43.21.85.45,1.26.7a3.46,3.46,0,0,1,1.06.71s-.72-.6-.29-.22l.56.47c.65.57,1.2,1.22,1.79,1.84s-.49-.72-.11-.15l.32.45c.24.35.46.7.67,1.07s.47.86.68,1.3c.1.19.18.39.27.58.34.69-.38-1.08.06.18a33.16,33.16,0,0,1,1.49,5.78c0,.29.09.57.13.86,0-.07-.1-.85-.05-.26s.11,1,.16,1.51c.09,1,.15,2,.2,3,.21,4.53.24,9.08.31,13.62q.4,28.31-.58,56.61c-.09,2.32-.17,4.65-.27,7a5,5,0,0,0,5,5,5.11,5.11,0,0,0,5-5q1.2-29.28.91-58.6-.08-7.23-.24-14.47A74.85,74.85,0,0,0,147.51,122c-1.78-8.43-7.44-16.53-16.23-18.6a15.85,15.85,0,0,0-12.71,2.18,24,24,0,0,0-7.65,9.46c-4,8.22-6.6,17.19-9,26-4.78,17.45-7.9,35.3-12.52,52.79a217.7,217.7,0,0,1-7.87,24.42c-.38.94-.76,1.88-1.15,2.81.37-.87-.14.31-.26.6-.23.52-.47,1-.7,1.58-.86,1.9-1.76,3.79-2.7,5.65a117,117,0,0,1-6.35,11q-1.73,2.63-3.59,5.14c-1.57,2.1-.42,5.67,1.79,6.84,2.62,1.38,5.17.45,6.84-1.8Z"/><path class="cls-1" d="M100.14,175q21.94.81,43.92.32a5,5,0,0,0,0-10q-22,.49-43.92-.32a5,5,0,0,0-5,5,5.11,5.11,0,0,0,5,5Z"/><path class="cls-1" d="M45.49,252.79l-22.18-3.86C7.75,246.21-2.45,230.22.51,213.2L29,49.59,50.91,53.4c15.72,2.74,26,18.9,23,36.09Z"/><path class="cls-1" d="M117.64,103.57,113,110.29c-3.29,4.71-10.33,5.48-15.72,1.72L45.42,75.84l4.63-6.63c3.33-4.76,10.43-5.54,15.88-1.74Z"/></g></g></svg>