<svg xmlns="http://www.w3.org/2000/svg" viewBox="0 0 171 261.4"><defs><style>.cls-1,.cls-2{fill:none;stroke:#79321f;stroke-miterlimit:10;}.cls-1{stroke-width:4px;}.cls-2{stroke-width:6px;}.cls-3{fill:#79321f;}</style></defs><g id="Layer_2" data-name="Layer 2"><g id="Layer_1-2" data-name="Layer 1"><circle class="cls-1" cx="73.08" cy="27.66" r="25.66"/><circle class="cls-2" cx="143.87" cy="234.27" r="24.13"/><path class="cls-3" d="M76.32,251.45c9.91-13.32,16.34-28.89,21.08-44.71,5-16.58,8.1-33.64,12.15-50.46,2.07-8.59,4.39-17.14,7.3-25.48q1.08-3.11,2.28-6.17c.18-.44.35-.88.53-1.33,0-.09.28-.65,0-.12.07-.17.15-.34.22-.5.38-.85.78-1.69,1.21-2.51s.78-1.39,1.22-2c.23-.36.47-.71.73-1.05-.37.48.43-.48.55-.62.28-.3.58-.59.88-.87.14-.13,1-.75.47-.41.29-.19.58-.39.89-.57.15-.08,1.28-.6.71-.38a9.65,9.65,0,0,1,1.19-.37c.23-.06,1.26-.17.55-.12.4,0,.8,0,1.21,0l.52,0c.71,0-.22-.06.21,0a16.63,16.63,0,0,1,2.2.6c.11,0,.66.28.1,0l.48.23c.43.21.86.45,1.27.7s.71.46,1.05.71c-.44-.32.4.34.53.45a19.33,19.33,0,0,1,1.78,1.84c.4.46-.27-.39.09.1l.32.45c.24.34.46.7.67,1.07a18.12,18.12,0,0,1,1.14,2.36,32.9,32.9,0,0,1,1.48,5.78c.05.28.09.57.13.85,0-.09,0-.36,0,.08s.11,1,.16,1.51c.09,1,.15,2,.2,3,.21,4.52.24,9,.31,13.57q.42,27.81-.54,55.62-.12,3.48-.27,7a3.79,3.79,0,0,0,3.75,3.75,3.83,3.83,0,0,0,3.75-3.75q1.19-28.81.87-57.65-.08-7.19-.24-14.36a72.28,72.28,0,0,0-1.2-13.29c-1.69-8-7-15.75-15.35-17.73a14.61,14.61,0,0,0-11.75,2.06,22.9,22.9,0,0,0-7.2,9c-3.9,8.12-6.5,17-8.88,25.66-4.79,17.44-7.9,35.29-12.53,52.78-4.34,16.43-9.83,32.14-19.15,46.38q-1.72,2.63-3.6,5.14c-1.2,1.63-.26,4.19,1.35,5.13,1.91,1.12,3.92.28,5.13-1.35Z"/><path class="cls-3" d="M102.14,175.73q21.94.81,43.92.32a3.75,3.75,0,0,0,0-7.5q-22,.49-43.92-.32A3.77,3.77,0,0,0,98.39,172a3.83,3.83,0,0,0,3.75,3.75Z"/><path class="cls-1" d="M47.49,254.79l-22.18-3.86C9.75,248.21-.45,232.22,2.51,215.2L31,51.59,52.91,55.4c15.72,2.74,26,18.9,23,36.09Z"/><path class="cls-1" d="M119.64,105.57,115,112.29c-3.29,4.71-10.33,5.48-15.72,1.72L47.42,77.84l4.63-6.63c3.33-4.76,10.43-5.54,15.88-1.74Z"/></g></g></svg>