<svg xmlns="http://www.w3.org/2000/svg" viewBox="0 0 249.4 224.9"><defs><style>.cls-1,.cls-2,.cls-3{fill:none;stroke:#6e8c65;stroke-miterlimit:10;}.cls-1{stroke-width:10px;}.cls-2{stroke-width:9px;}.cls-3{stroke-width:8px;}</style></defs><g id="Layer_2" data-name="Layer 2"><g id="Layer_1-2" data-name="Layer 1"><path class="cls-1" d="M66.79,160.81l-10.42,9.25a27,27,0,0,0-2.23,38.07h0A35,35,0,0,0,103.63,211l20.87-18.55"/><path class="cls-2" d="M105.45,22.72c11.7,10.1,26,10.35,38.1,1.45h0"/><path class="cls-3" d="M105.67,3c11.1,9.63,26.16,9.75,38.1,1.45h0"/><line class="cls-1" x1="124.72" y1="192.23" x2="124.5" y2="192.42"/><path class="cls-1" d="M130.88,138.29l18.61-12.71L170,110.77c6-4.3,13.11-9.7,14.13-16.17s-.86-12.14-5.79-17.34a22,22,0,0,0-30.86-1L123.93,98.06,100.35,76.25a22,22,0,0,0-30.86,1,27.77,27.77,0,0,0,1.31,39.61l16.51,15.26,37.39,33.31,63.07-43.85,34.95-24.11c12.85-9.68,21.68-24.32,21.68-35.13a50,50,0,0,0-14.74-33.62c-15.89-16-42.52-16.84-59.48-1.85L124.72,67.07,79.26,26.88c-17-15-43.6-14.17-59.49,1.85a49.62,49.62,0,0,0,2.55,73l31.81,28.12,70.8,62.58L145.81,211a35,35,0,0,0,49.49-2.91h0a27,27,0,0,0-2.24-38.07l-15.8-14"/></g></g></svg>