<svg xmlns="http://www.w3.org/2000/svg" viewBox="0 0 249.4 224.9"><defs><style>.cls-1,.cls-2,.cls-3{fill:none;stroke:#6e8c65;stroke-miterlimit:10;}.cls-1{stroke-width:10px;}.cls-2{stroke-width:9px;}.cls-3{stroke-width:8px;}.cls-4{fill:#6e8c65;}</style></defs><g id="Layer_2" data-name="Layer 2"><g id="Layer_1-2" data-name="Layer 1"><path class="cls-1" d="M66.79,160.81l-10.42,9.25a27,27,0,0,0-2.23,38.07h0A35,35,0,0,0,103.63,211l20.87-18.55"/><path class="cls-2" d="M105.45,22.72c11.7,10.1,26,10.35,38.1,1.45h0"/><path class="cls-3" d="M105.67,3c11.1,9.63,26.16,9.75,38.1,1.45"/><line class="cls-1" x1="124.72" y1="192.23" x2="124.5" y2="192.42"/><path class="cls-1" d="M127.8,146.22l19.32-16.17s17.78-12.51,22.4-16.52c5.58-4.86,13.63-12.46,14.65-18.93s-.86-12.14-5.79-17.34a22,22,0,0,0-30.86-1L123.93,98.06,100.35,76.25a22,22,0,0,0-30.86,1,27.77,27.77,0,0,0,1.31,39.61l16.51,15.26,37.39,33.31,63.07-43.85,34.95-24.11c12.85-9.68,21.68-24.32,21.68-35.13a50,50,0,0,0-14.74-33.62c-15.89-16-42.52-16.84-59.48-1.85L124.72,67.07,79.26,26.88c-17-15-43.6-14.17-59.49,1.85a49.62,49.62,0,0,0,2.55,73l31.81,28.12,70.8,62.58L145.81,211a35,35,0,0,0,49.49-2.91h0a27,27,0,0,0-2.24-38.07l-15.8-14"/><path class="cls-4" d="M124.5,159.66c9.34-7,23.65-21.15,32-28.25,4.7-4,12.65-10.79,17-14.68,5.51-5,11.27-13.92,12.27-20.76s-.84-12.85-5.63-18.35a20.22,20.22,0,0,0-30-1.07L127.18,99.63,104.25,76.55a20.21,20.21,0,0,0-30,1.07,31.23,31.23,0,0,0,1.27,41.91l16.06,16.15,22.19,21.52"/></g></g></svg>