<svg xmlns="http://www.w3.org/2000/svg" viewBox="0 0 210.17 277.46"><defs><style>.cls-1,.cls-2,.cls-3{fill:none;stroke:#ecf3ea;stroke-miterlimit:10;}.cls-1{stroke-width:8.82px;}.cls-2{stroke-width:8.84px;}.cls-3{stroke-width:9px;}</style></defs><g id="Layer_2" data-name="Layer 2"><g id="Layer_1-2" data-name="Layer 1"><path class="cls-1" d="M41.59,155.05c-.34,0-.51-.36-1.57-1.24-6.5-5.37-14.25-13.26-13.45-22,.74-8.15,6.41-15.71,12.48-21.12,12.36-11,27.36-20.09,44.19-22.91,9.23-1.55,17.6-.4,26.74,1,19.73,2.94,41,6.9,59.56-3A58.34,58.34,0,0,0,178.05,80a129.8,129.8,0,0,1,14.1-9.88s8.28,9.18,10.9,13.39c4.71,7.59,2.84,16.81-2.46,23.61C183,129.72,148.67,131.64,122,128c-6.05-.84-12.09-1.8-18.12-2.81-7.71-1.31-14.09-2.46-21.28,1.4a198.11,198.11,0,0,0-21.18,13.11q-5.07,3.6-9.89,7.52C48.89,149.37,41.84,155,41.59,155.05Z"/><path class="cls-2" d="M21,273c-.55.06-10-7.3-13.49-11-6.65-7-1.15-20.1,3.05-26.94,7.18-11.69,17.55-21.18,28.45-29.62,29.5-22.86,61.69-45.21,100.23-49.92,27.12-3.32,58.65,10.53,65.29,38,3.7,15.27-1.38,31.11-11.52,43.07-11.76,13.86-28.18,19.06-45.38,24.12a73,73,0,0,1-10,1.74s-4.64-17.88-1-25.16c3.15-6.33,9.43-9.68,15.18-13.5,6.09-4.06,14.14-10.32,14.81-18,.41-4.74-1.49-8.74-6-10.87-9.44-4.44-22.91-2.16-32.44.79C114,200,100.55,207.49,88.45,215.6,82,220,77.63,223.4,71.35,228.42,54.07,242.23,21.14,273,21,273Z"/><circle class="cls-3" cx="129.99" cy="33.04" r="28.54"/></g></g></svg>