<svg xmlns="http://www.w3.org/2000/svg" viewBox="0 0 201.32 268.54"><defs><style>.cls-1{fill:#aa6d5f;}</style></defs><g id="Layer_2" data-name="Layer 2"><g id="Layer_1-2" data-name="Layer 1"><path class="cls-1" d="M37.17,150.55c-.34,0-.51-.36-1.57-1.24-6.5-5.37-14.25-13.26-13.45-22,.74-8.15,6.4-15.71,12.48-21.12C47,95.15,62,86.07,78.81,83.25c9.24-1.55,17.61-.4,26.75,1,19.73,2.94,41,6.9,59.56-3a58.34,58.34,0,0,0,8.51-5.72,129.8,129.8,0,0,1,14.1-9.88S196,74.83,198.63,79c4.7,7.59,2.84,16.81-2.46,23.61-17.6,22.57-51.92,24.49-78.58,20.83-6.06-.84-12.09-1.8-18.12-2.81-7.72-1.31-14.09-2.46-21.28,1.4A198.11,198.11,0,0,0,57,135.18q-5.07,3.6-9.89,7.52C44.47,144.87,37.42,150.53,37.17,150.55Z"/><path class="cls-1" d="M16.59,268.54c-.55.06-10-7.3-13.49-11-6.65-7-1.15-20.1,3.05-26.94C13.33,218.88,23.7,209.39,34.59,201,64.1,178.09,96.28,155.74,134.83,151c27.12-3.32,58.65,10.53,65.29,38,3.69,15.27-1.38,31.11-11.53,43.07-11.75,13.86-28.17,19.06-45.37,24.12a73,73,0,0,1-10,1.74s-4.64-17.88-1-25.16c3.15-6.33,9.43-9.68,15.18-13.5,6.09-4.06,14.14-10.32,14.81-18,.41-4.74-1.49-8.74-6-10.87-9.44-4.44-22.92-2.16-32.44.79C109.6,195.52,96.13,203,84,211.1c-6.49,4.36-10.82,7.8-17.11,12.82C49.65,237.73,16.72,268.52,16.59,268.54Z"/><circle class="cls-1" cx="125.56" cy="28.54" r="28.54"/></g></g></svg>