<svg xmlns="http://www.w3.org/2000/svg" viewBox="0 0 202.32 269.54"><defs><style>.cls-1,.cls-2{fill:#c2d1be;}.cls-2{stroke:#c2d1be;stroke-miterlimit:10;}</style></defs><g id="Layer_2" data-name="Layer 2"><g id="Layer_1-2" data-name="Layer 1"><path class="cls-1" d="M37.67,151.05c-.34,0-.51-.36-1.57-1.24-6.5-5.37-14.25-13.26-13.45-22,.74-8.15,6.4-15.71,12.48-21.12,12.36-11,27.36-20.09,44.18-22.91,9.24-1.55,17.61-.4,26.75,1,19.73,2.94,41,6.9,59.56-3A58.34,58.34,0,0,0,174.13,76a129.8,129.8,0,0,1,14.1-9.88s8.28,9.18,10.9,13.39c4.7,7.59,2.84,16.81-2.46,23.61-17.6,22.57-51.92,24.49-78.58,20.83-6.06-.84-12.09-1.8-18.12-2.81-7.72-1.31-14.09-2.46-21.28,1.4a198.11,198.11,0,0,0-21.18,13.11q-5.07,3.6-9.89,7.52C45,145.37,37.92,151,37.67,151.05Z"/><path class="cls-2" d="M17.09,269c-.55.06-10-7.3-13.49-11-6.65-7-1.15-20.1,3.05-26.94,7.18-11.69,17.55-21.18,28.44-29.62,29.51-22.86,61.69-45.21,100.24-49.92,27.12-3.32,58.65,10.53,65.29,38,3.69,15.27-1.38,31.11-11.53,43.07-11.75,13.86-28.17,19.06-45.37,24.12a73,73,0,0,1-10,1.74s-4.64-17.88-1-25.16c3.15-6.33,9.43-9.68,15.18-13.5,6.09-4.06,14.14-10.32,14.81-18,.41-4.74-1.49-8.74-6-10.87-9.44-4.44-22.92-2.16-32.44.79C110.1,196,96.63,203.49,84.53,211.6,78,216,73.71,219.4,67.42,224.42,50.15,238.23,17.22,269,17.09,269Z"/><circle class="cls-2" cx="126.06" cy="29.04" r="28.54"/></g></g></svg>